<mxfile host="app.diagrams.net" modified="2023-10-18T22:50:23.302Z" agent="Mozilla/5.0 (X11; Linux x86_64) AppleWebKit/537.36 (KHTML, like Gecko) Chrome/117.0.0.0 Safari/537.36" version="22.0.4" etag="6LB_HNooSj6yogV37PcK" type="github">
  <diagram name="Page-1" id="E_CC-ON0bI2OgO4I0IVC">
    <mxGraphModel>
      <root>
        <mxCell id="0" />
        <mxCell id="1" parent="0" />
      </root>
    </mxGraphModel>
  </diagram>
</mxfile>
